<svg width="36" height="39" viewBox="0 0 36 39" fill="none" xmlns="http://www.w3.org/2000/svg">
<path d="M11.9892 20.5725L10.2576 16.28L10.3053 9.33145C10.3053 9.33145 14.9694 8.63247 17.419 8.29568C19.8687 7.9589 24.7394 5.90641 29.1811 7.87311C34.2265 10.1067 36.9017 15.276 35.5546 23.1555C34.2075 31.035 28.301 37.4117 22.9824 38.098C20.3484 38.4379 19.8782 37.4149 17.8607 37.561C16.2276 37.6786 16.3166 38.5269 13.5301 38.3839C10.7437 38.241 8.37986 37.2052 6.98824 35.4768C5.59662 33.7484 11.9892 20.5725 11.9892 20.5725V20.5725Z" fill="#DC0D28"/>
<path d="M4.30062 10.6753C0.306854 14.0114 -1.57724 21.0426 1.60951 28.5472C4.44359 35.2257 8.97113 37.1352 8.97113 37.1352C8.97113 37.1352 16.8888 36.6173 22.4139 33.6371C27.9391 30.6568 33.2737 25.4684 33.2737 18.647C33.2737 11.8255 29.7184 9.5188 29.3339 9.42349C28.9495 9.32817 27.364 10.3353 25.5848 10.383C23.8056 10.4307 22.4139 9.99856 22.4139 9.99856L16.7934 11.8731L11.5383 10.6467C11.5383 10.6467 11.3699 9.91278 11.9386 9.61412C13.1206 8.99774 15.5893 10.0462 16.5996 9.99856C17.61 9.9509 18.4742 8.60376 18.4742 8.60376C18.4742 8.60376 16.1199 8.3623 15.3033 8.17166C14.4868 7.98738 8.9616 6.78322 4.30062 10.6753V10.6753Z" fill="#FF5117"/>
<path d="M17.2636 10.7167C15.8084 10.7834 11.9068 9.414 11.5541 10.4847C11.1792 11.6222 14.0832 13.1313 17.6195 12.8835C21.3082 12.6262 23.6053 10.5864 23.0207 9.48707C22.4393 8.38776 20.0469 10.5864 17.2636 10.7167Z" fill="#8D1D0A"/>
<path d="M13.7719 4.31128C13.7719 4.31128 13.1586 4.27951 12.8346 4.14925C12.5105 4.01898 12.053 4.02851 12.0911 3.46932C12.1546 2.53204 13.3556 1.56934 13.6448 1.39777C14.1944 1.0737 15.1571 1.16266 15.5225 1.39777C15.9768 1.69008 15.7481 2.75762 15.7481 2.75762C15.7481 2.75762 17.3653 5.18502 17.5909 6.67196C17.7974 8.02863 18.6425 11.9874 17.3653 12.2353C16.1992 12.4608 16.6854 9.42025 16.0404 7.93331C15.6528 7.04369 15.1031 6.09053 14.5852 5.44237C14.292 5.08177 14.0204 4.70407 13.7719 4.31128V4.31128Z" fill="#513630"/>
<path d="M31.0461 0.527269C31.1763 0.301687 30.9158 0.0729272 29.8482 0.041155C28.7807 0.00938281 22.9569 -0.540276 19.6589 3.56787C17.2887 6.5195 17.6541 9.03586 17.6541 9.03586L19.8209 9.13435L31.0461 0.527269V0.527269Z" fill="#2F7C31"/>
<path d="M23.895 4.56856C25.8553 3.21506 31.0755 0.266602 31.0755 0.266602C31.0755 0.266602 31.0755 1.01007 30.7514 1.65822C30.4273 2.30638 29.328 5.50901 24.864 7.83791C20.6733 10.0238 17.8773 9.48689 17.6485 9.09927C17.4261 8.71165 20.6605 6.80214 23.895 4.56856V4.56856Z" fill="#709F19"/>
<path d="M9.50167 11.6221C8.63429 10.3734 6.53415 10.7261 4.65005 13.2393C2.22266 16.4737 2.35293 20.7756 4.0019 21.0362C5.63817 21.2935 4.19571 19.6446 6.71842 16.3784C8.65017 13.8779 10.601 13.2075 9.50167 11.6221Z" fill="#FFD2B1"/>
</svg>
