<svg width="96" height="58" viewBox="0 0 96 58" fill="none" xmlns="http://www.w3.org/2000/svg">
<rect width="96" height="57.6" rx="28.8" fill="#FFD0D0"/>
<path d="M42.039 29.7883L40.3074 25.4959L40.3551 18.5473C40.3551 18.5473 45.0192 17.8483 47.4689 17.5115C49.9185 17.1747 54.7892 15.1222 59.2309 17.0889C64.2763 19.3225 66.9516 24.4918 65.6044 32.3713C64.2573 40.2508 58.3508 46.6275 53.0322 47.3138C50.3982 47.6538 49.928 46.6307 47.9105 46.7769C46.2774 46.8944 46.3664 47.7427 43.5799 47.5998C40.7935 47.4568 38.4297 46.421 37.038 44.6926C35.6464 42.9642 42.039 29.7883 42.039 29.7883Z" fill="#DC0D28"/>
<path d="M34.3504 19.891C30.3567 23.2271 28.4726 30.2583 31.6593 37.7629C34.4934 44.4414 39.0209 46.3509 39.0209 46.3509C39.0209 46.3509 46.9386 45.833 52.4637 42.8528C57.9889 39.8725 63.3235 34.6841 63.3235 27.8626C63.3235 21.0412 59.7682 18.7345 59.3837 18.6392C58.9993 18.5439 57.4138 19.551 55.6346 19.5987C53.8554 19.6464 52.4637 19.2143 52.4637 19.2143L46.8432 21.0888L41.5881 19.8624C41.5881 19.8624 41.4197 19.1285 41.9885 18.8298C43.1704 18.2134 45.6391 19.2619 46.6494 19.2143C47.6598 19.1666 48.524 17.8195 48.524 17.8195C48.524 17.8195 46.1697 17.578 45.3531 17.3874C44.5366 17.2031 39.0114 15.9989 34.3504 19.891Z" fill="#FF5117"/>
<path d="M47.3134 19.9324C45.8582 19.9991 41.9566 18.6297 41.604 19.7004C41.229 20.8379 44.133 22.347 47.6693 22.0992C51.358 21.8419 53.6551 19.8021 53.0705 18.7028C52.4891 17.6035 50.0967 19.8021 47.3134 19.9324Z" fill="#8D1D0A"/>
<path d="M43.8217 13.5273C43.8217 13.5273 43.2085 13.4956 42.8844 13.3653C42.5603 13.235 42.1028 13.2446 42.1409 12.6854C42.2045 11.7481 43.4054 10.7854 43.6946 10.6138C44.2442 10.2898 45.2069 10.3787 45.5723 10.6138C46.0266 10.9061 45.7979 11.9737 45.7979 11.9737C45.7979 11.9737 47.4151 14.4011 47.6407 15.888C47.8472 17.2447 48.6923 21.2035 47.4151 21.4513C46.2491 21.6769 46.7352 18.6363 46.0902 17.1494C45.7026 16.2598 45.1529 15.3066 44.635 14.6584C44.3418 14.2978 44.0702 13.9201 43.8217 13.5273Z" fill="#513630"/>
<path d="M61.0959 9.74309C61.2261 9.51751 60.9656 9.28875 59.898 9.25698C58.8305 9.2252 53.0067 8.67554 49.7087 12.7837C47.3385 15.7353 47.7039 18.2517 47.7039 18.2517L49.8707 18.3502L61.0959 9.74309Z" fill="#2F7C31"/>
<path d="M53.9448 13.7844C55.9051 12.4309 61.1253 9.48242 61.1253 9.48242C61.1253 9.48242 61.1253 10.2259 60.8012 10.874C60.4771 11.5222 59.3778 14.7248 54.9138 17.0537C50.7231 19.2397 47.9271 18.7027 47.6983 18.3151C47.4759 17.9275 50.7104 16.018 53.9448 13.7844Z" fill="#709F19"/>
<path d="M39.5513 20.8378C38.684 19.5891 36.5838 19.9418 34.6997 22.455C32.2723 25.6894 32.4026 29.9913 34.0516 30.2519C35.6879 30.5092 34.2454 28.8603 36.7681 25.5941C38.6999 23.0936 40.6507 22.4232 39.5513 20.8378Z" fill="#FFD2B1"/>
</svg>
