<svg width="97" height="58" viewBox="0 0 97 58" fill="none" xmlns="http://www.w3.org/2000/svg">
<rect x="0.379883" y="0.14209" width="95.9674" height="57.5804" rx="28.7902" fill="#FFEDD0"/>
<path d="M60.6187 18.1515C60.6187 18.1515 60.6289 18.2923 60.632 18.5491L60.6332 18.6509C60.6334 18.6869 60.6351 18.7227 60.6313 18.7683C60.6235 18.8636 60.6156 18.9588 60.6077 19.054C60.5982 19.1563 60.5893 19.2715 60.5761 19.3867C60.5625 19.4997 60.5495 19.6212 60.5316 19.7482C60.4477 20.3624 60.3201 20.9699 60.1497 21.5659C59.9535 22.2583 59.6775 23.0287 59.2973 23.8401C58.9186 24.6521 58.43 25.5002 57.8305 26.3486C57.7578 26.4568 57.6779 26.5596 57.5994 26.6652L57.4802 26.8238L57.4202 26.9035L57.4052 26.9235C57.4525 26.8799 57.3322 26.9941 57.3424 26.9853L57.3362 26.9936L57.3111 27.0269C57.1783 27.2056 57.0383 27.3804 56.8998 27.5604L56.8867 27.5773L56.8683 27.598L56.8312 27.6397L56.7566 27.7232L56.6044 27.8888L56.2943 28.2218L56.2159 28.3052L56.1423 28.3806C56.0932 28.4312 56.0434 28.4813 55.993 28.5307L55.6893 28.8307C54.8676 29.6268 53.9343 30.3681 52.9207 31.0264C51.8929 31.6919 50.8036 32.2573 49.6679 32.7148C48.5313 33.174 47.354 33.5248 46.1514 33.7626C44.9627 33.9961 43.7725 34.1131 42.6236 34.1189C41.4744 34.1253 40.3675 34.0231 39.339 33.8396C38.8242 33.7523 38.3298 33.633 37.8572 33.5103C37.3858 33.3761 36.9352 33.241 36.5121 33.0802L36.1982 32.9656C36.0951 32.9275 35.9948 32.8819 35.8953 32.8412C35.6963 32.7585 35.5035 32.6752 35.3171 32.5917C35.1314 32.5056 34.9529 32.416 34.7805 32.3289L34.5263 32.2002C34.443 32.158 34.3632 32.1095 34.2839 32.0656C33.9678 31.8853 33.6753 31.718 33.4155 31.5407C33.1546 31.3666 32.9171 31.2094 32.712 31.0485L32.4218 30.8232L32.1709 30.619C32.0178 30.488 31.8917 30.3708 31.7898 30.2763C31.5864 30.0872 31.4836 29.9792 31.4836 29.9792C30.5268 28.9739 30.5662 27.3833 31.5716 26.4265C31.9746 26.0417 32.4946 25.8024 33.049 25.7467L33.3504 25.7163C33.3504 25.7163 33.4768 25.7035 33.703 25.6928C33.816 25.6875 33.9547 25.6804 34.1131 25.6787L34.3714 25.6636L34.6586 25.6526C34.8578 25.6508 35.0813 25.6313 35.3165 25.6237C35.551 25.6189 35.8064 25.595 36.0708 25.5844C36.3356 25.5726 36.6173 25.5433 36.9054 25.5298C37.1974 25.4983 37.496 25.4849 37.8069 25.4485L38.0408 25.4253L38.1586 25.4157L38.2778 25.4009L38.5181 25.3715L38.7604 25.3469C38.9235 25.3231 39.088 25.2999 39.2536 25.2812L39.3782 25.2659L39.5036 25.2451L39.7557 25.2083C40.4306 25.1061 41.126 24.9821 41.831 24.8308C43.2412 24.5302 44.69 24.1209 46.1034 23.5967C46.8092 23.3341 47.5054 23.0465 48.1907 22.7345C48.8744 22.425 49.54 22.0902 50.1885 21.7458L50.4285 21.6132C50.4683 21.5911 50.5085 21.5693 50.5493 21.5484L50.6102 21.5168L50.6623 21.4886L50.8701 21.3776L50.9748 21.323L51.0282 21.2967L51.0549 21.2836L51.0684 21.277L51.0862 21.2654C51.2767 21.1416 51.462 21.0159 51.6507 20.8978L51.6859 20.8755L51.6947 20.8699C51.71 20.8565 51.5946 20.966 51.6467 20.9176L51.6609 20.9089L51.7174 20.8742L51.8304 20.805L52.0551 20.6669C52.649 20.2966 53.2191 19.9244 53.7469 19.5556C54.2413 19.2109 54.7291 18.8569 55.21 18.4936C55.6543 18.1603 56.046 17.8507 56.3776 17.5899C56.459 17.5239 56.54 17.4627 56.6147 17.4037C56.6884 17.3463 56.7564 17.2972 56.8209 17.2481L57.0008 17.1126C57.0288 17.0942 57.0579 17.0676 57.0851 17.0446L57.1624 16.9783C57.3574 16.8113 57.4699 16.726 57.4699 16.726C58.3354 16.07 59.5687 16.2399 60.2247 17.1054C60.4554 17.4082 60.5923 17.7718 60.6187 18.1515Z" fill="#FFAE2C"/>
<path d="M32.3624 27.9723C32.0545 28.6753 31.7819 28.7683 31.0587 28.4516C30.3355 28.135 30.219 27.8715 30.5268 27.1685C30.8346 26.4656 32.6702 27.2693 32.3624 27.9723Z" fill="#B28E7F"/>
<path d="M62.2083 19.0548C62.2083 19.0548 62.242 19.2104 62.2863 19.4969L62.3038 19.6105C62.3098 19.6507 62.3174 19.6904 62.3205 19.742L62.3395 20.0649C62.3451 20.1808 62.3536 20.3109 62.3571 20.4417C62.3598 20.5701 62.3646 20.708 62.3648 20.8528C62.3688 21.5525 62.3227 22.2515 62.227 22.9446C62.1178 23.7495 61.9319 24.6542 61.6362 25.6213C61.342 26.5888 60.9309 27.6142 60.3959 28.6574C60.3319 28.7899 60.259 28.9175 60.1879 29.048L60.0801 29.2442L60.0257 29.3428L60.012 29.3675C60.058 29.3113 59.9417 29.458 59.9517 29.4465L59.946 29.4568L59.9234 29.498C59.8034 29.7188 59.6747 29.9364 59.5486 30.1596L59.5367 30.1804L59.5194 30.2065L59.4845 30.2589L59.4144 30.3641L59.2707 30.5734L58.9772 30.9947L58.9029 31.1003L58.8326 31.1963C58.7859 31.2606 58.738 31.3242 58.6897 31.3876L58.398 31.7712C57.6063 32.7913 56.6813 33.768 55.6533 34.6648C54.6107 35.5718 53.4834 36.3768 52.2871 37.0685C51.0901 37.7623 49.8302 38.3415 48.5243 38.7983C47.2331 39.2483 45.9218 39.5682 44.6389 39.7574C43.3558 39.9472 42.1027 40.0089 40.9242 39.9674C40.3352 39.9516 39.7638 39.897 39.2161 39.835C38.668 39.7599 38.143 39.6805 37.6447 39.5682L37.2758 39.49C37.1545 39.464 37.0352 39.429 36.9175 39.3992C36.6881 39.3401 36.4595 39.2778 36.2318 39.2124C36.0106 39.1457 35.7969 39.074 35.5903 39.004L35.2858 38.9005C35.1861 38.8666 35.0892 38.8252 34.9936 38.7888C34.8092 38.7168 34.6256 38.6427 34.443 38.5663C34.2664 38.497 34.0996 38.4153 33.9398 38.3403C33.6205 38.1872 33.3302 38.0493 33.0755 37.9021C32.8488 37.7752 32.6243 37.6444 32.402 37.5098C32.2403 37.4044 32.0804 37.2964 31.9222 37.1858C31.6648 37.0068 31.5328 36.9025 31.5328 36.9025C30.3038 35.9312 30.095 34.1476 31.0663 32.9186C31.4555 32.4246 31.9984 32.0746 32.6091 31.9242L32.941 31.8422C32.941 31.8422 33.0801 31.8078 33.3312 31.76C33.4567 31.7362 33.6105 31.7063 33.7877 31.6773C33.9665 31.6411 34.1694 31.6023 34.3926 31.5632C34.6149 31.5294 34.8616 31.4721 35.1232 31.4262C35.3845 31.3836 35.6661 31.3163 35.9598 31.2624C36.2539 31.2072 36.564 31.1296 36.8838 31.0688C37.0464 31.0285 37.2096 30.9906 37.3733 30.9552C37.539 30.9204 37.7075 30.8761 37.8782 30.8346L38.136 30.7714L38.266 30.742L38.3968 30.7065L38.6606 30.6355L38.9274 30.5695L39.1964 30.4912C39.3325 30.4542 39.4686 30.4174 39.6048 30.3806L39.7417 30.3375C39.8331 30.3091 39.9252 30.2835 40.0175 30.2563C40.7554 30.0348 41.5127 29.7857 42.2764 29.5045C43.8044 28.9444 45.3583 28.2568 46.8542 27.4462C47.6011 27.0407 48.3333 26.6086 49.0495 26.151C49.7642 25.6965 50.4549 25.2165 51.1247 24.7286L51.3718 24.5422C51.4128 24.511 51.4544 24.4804 51.4965 24.4506L51.5595 24.4055L51.6132 24.3658L51.8277 24.2087L51.9361 24.131L51.9916 24.0931L52.0194 24.0743L52.0334 24.0647L52.0515 24.0488C52.2447 23.8803 52.4318 23.7104 52.6238 23.5483L52.6596 23.5178L52.6686 23.5102C52.6835 23.4927 52.5719 23.6333 52.6225 23.5711L52.6369 23.5591L52.6946 23.5114L52.8098 23.4161L53.0389 23.2261C53.6437 22.7179 54.2216 22.2114 54.7527 21.7154C55.2504 21.2517 55.7391 20.7785 56.2188 20.2962C56.6622 19.8532 57.0507 19.445 57.3797 19.1008C57.4601 19.0141 57.5409 18.9329 57.6151 18.8551C57.6884 18.7791 57.7565 18.7136 57.8208 18.6484L58.0002 18.4684C58.0285 18.4434 58.0569 18.409 58.0835 18.3789L58.1594 18.2926C58.3508 18.0749 58.4629 17.9618 58.4629 17.9618C59.3257 17.0912 60.7309 17.0849 61.6015 17.9477C61.9073 18.2497 62.1183 18.6345 62.2083 19.0548Z" fill="#FFB93E"/>
<path d="M32.1961 34.5203C31.9639 35.3548 29.7851 34.7484 30.0173 33.914C30.2495 33.0795 30.5393 32.9322 31.3979 33.1711C32.2564 33.41 32.4283 33.6858 32.1961 34.5203Z" fill="#A07562"/>
<path d="M60.9632 12.1569C60.8762 12.133 60.7852 12.1272 60.6958 12.1397C60.6031 12.0602 60.4991 11.9948 60.3872 11.9456C59.9378 11.7488 59.4493 12.1833 59.2007 12.4557C58.4441 13.2843 60.1466 14.3713 58.9369 16.3729C58.7664 16.6549 58.9117 17.3812 59.1719 17.4952C59.4655 17.6237 59.8113 17.5301 60.0684 17.2808C60.061 17.2987 60.0541 17.3164 60.0464 17.3345C59.9007 17.6767 60.1787 18.4652 60.4875 18.5512C60.9462 18.6788 61.4456 18.3625 61.6484 17.8214C62.2186 16.2995 62.8277 12.6758 60.9632 12.1569Z" fill="#8E6049"/>
<path d="M64.9095 17.949C64.9095 17.949 64.9869 18.0828 65.1148 18.3351L65.1654 18.4352C65.1832 18.4709 65.2021 18.5046 65.2212 18.5542L65.3402 18.8601C65.3819 18.97 65.4305 19.0933 65.4748 19.2175C65.5175 19.3394 65.5649 19.4693 65.6107 19.6075C65.834 20.2745 66.012 20.9558 66.1432 21.6469C66.2975 22.4493 66.4139 23.3711 66.4503 24.3877C66.4882 25.4041 66.4377 26.5136 66.2801 27.681C66.2635 27.8278 66.2375 27.9732 66.214 28.1207L66.1777 28.3425L66.1592 28.4541L66.1546 28.4821C66.178 28.4095 66.12 28.597 66.1253 28.5817L66.1234 28.5932L66.1156 28.6393C66.0753 28.8858 66.0264 29.1327 65.9815 29.3837L65.9772 29.4072L65.9697 29.4379L65.9545 29.4995L65.9239 29.6231C65.9023 29.7056 65.8807 29.7881 65.8591 29.8706L65.7251 30.3698L65.6908 30.495L65.6569 30.6095C65.6344 30.6862 65.611 30.7626 65.5869 30.8388L65.442 31.3C65.0383 32.5303 64.5049 33.768 63.8481 34.9659C63.1814 36.1772 62.403 37.3236 61.5232 38.3901C60.6411 39.4636 59.6558 40.4512 58.6091 41.327C57.5625 42.2032 56.4542 42.9676 55.3268 43.6013C54.1996 44.2359 53.0567 44.7429 51.9472 45.1299C51.3944 45.3278 50.8443 45.4839 50.3138 45.6256C49.7781 45.7549 49.2627 45.8728 48.7601 45.951L48.3898 46.0136C48.2679 46.0339 48.1448 46.0452 48.0249 46.0609C47.7845 46.0909 47.5501 46.1173 47.3218 46.14C47.0927 46.1596 46.8687 46.1721 46.652 46.1838L46.3324 46.2007C46.2277 46.2064 46.123 46.204 46.0211 46.2058C45.6126 46.2075 45.2341 46.2095 44.8821 46.1837C44.5307 46.1616 44.2116 46.1434 43.922 46.1035L43.5135 46.0498L43.155 45.995C42.9327 45.9551 42.7444 45.9141 42.5925 45.881C42.2887 45.8148 42.1283 45.7703 42.1283 45.7703C40.6347 45.356 39.7598 43.8093 40.1741 42.3158C40.3538 41.6642 40.7635 41.0998 41.3273 40.727L41.6044 40.544C41.6044 40.544 41.722 40.4662 41.9396 40.3376C42.0483 40.2734 42.1815 40.194 42.3371 40.1089L42.5843 39.9582L42.8623 39.7957C43.0584 39.6884 43.2689 39.5505 43.4977 39.4175C43.7274 39.2877 43.9673 39.1274 44.2236 38.9747C44.4796 38.8208 44.7428 38.6399 45.0211 38.4704C45.2933 38.281 45.5821 38.1052 45.8702 37.8992L46.0893 37.7483L46.2007 37.6742L46.3107 37.5942L46.5326 37.4332L46.7589 37.2753L46.983 37.1051L47.2111 36.9378L47.3259 36.8537L47.4386 36.7637L47.6676 36.5873C48.2785 36.1111 48.8963 35.599 49.5055 35.052C50.1148 34.505 50.7182 33.9266 51.3005 33.3162C51.883 32.7061 52.4439 32.0644 52.9793 31.4033C54.047 30.0783 55.0043 28.6686 55.826 27.2577L55.9764 26.9924C56.0013 26.9483 56.0266 26.9043 56.0531 26.8609L56.0923 26.7956L56.1245 26.7389L56.254 26.5148L56.32 26.4034L56.3545 26.3481L56.3718 26.3205L56.3804 26.3066L56.3907 26.285C56.5011 26.0551 56.606 25.8264 56.7175 25.6028L56.7382 25.5609L56.7434 25.5504C56.7511 25.5278 56.6953 25.708 56.7208 25.6279L56.729 25.6115L56.7619 25.546L56.8277 25.4154L56.9582 25.1555C57.2997 24.4635 57.6149 23.7867 57.8908 23.1399C58.1486 22.5374 58.3945 21.9298 58.6282 21.3175C58.8446 20.7566 59.0251 20.2494 59.1782 19.8225C59.2147 19.7159 59.2534 19.6141 59.2879 19.5179C59.3221 19.4241 59.3554 19.3433 59.3859 19.2633L59.4719 19.0425C59.4868 19.0114 59.4981 18.9686 59.5096 18.9312L59.5421 18.8238C59.624 18.5531 59.6771 18.4079 59.6771 18.4079C60.2265 16.9037 61.8913 16.1298 63.3954 16.6792C64.0582 16.9212 64.581 17.383 64.9095 17.949Z" fill="#FFCE6C"/>
<path d="M64.3953 25.2526C64.3953 25.2526 64.442 25.4694 64.4892 25.8444C64.4954 25.8914 64.5021 25.9408 64.5074 25.9924L64.5161 26.0718L64.5202 26.1604C64.5265 26.2814 64.5272 26.4124 64.5307 26.5538C64.5325 26.6942 64.533 26.8473 64.5291 27.0038L64.4971 27.488C64.4755 27.8276 64.4169 28.1883 64.3509 28.5721C64.3363 28.6687 64.3134 28.7639 64.2912 28.8608L64.2211 29.1546C64.1721 29.3524 64.1245 29.5563 64.0567 29.7562C63.9921 29.9612 63.9251 30.1654 63.8554 30.3687C63.7784 30.572 63.6944 30.7754 63.6103 30.981C63.5661 31.0827 63.5271 31.1878 63.4774 31.2876L63.3309 31.5894L63.1808 31.8911C63.132 31.9927 63.0769 32.0905 63.0203 32.1877C62.9093 32.3827 62.7965 32.5767 62.6818 32.7696C62.5613 32.9564 62.4384 33.1415 62.313 33.325C62.1924 33.5099 62.0585 33.683 61.9266 33.8539C61.7929 34.0235 61.6664 34.1949 61.5278 34.352C61.2514 34.6671 60.9839 34.9696 60.7044 35.2321L60.5006 35.4281C60.4331 35.4918 60.3685 35.556 60.2992 35.614C60.1612 35.7303 60.0317 35.8452 59.9014 35.9495C59.6479 36.1647 59.3969 36.341 59.1747 36.4953C59.0629 36.5717 58.9599 36.6443 58.8613 36.7073C58.7694 36.7636 58.6768 36.8185 58.5833 36.8721C58.4529 36.9482 58.3207 37.021 58.1868 37.0907C58.0938 37.1388 58.0431 37.1628 58.0431 37.1628C57.9271 37.2177 57.7966 37.2346 57.6704 37.211C57.5442 37.1874 57.4286 37.1246 57.3402 37.0314C57.2519 36.9383 57.1951 36.8196 57.1782 36.6923C57.1612 36.5651 57.1849 36.4357 57.2459 36.3226L57.2564 36.3035L57.3304 36.1681C57.3796 36.0812 57.4522 35.9547 57.5488 35.8003C57.5962 35.7221 57.6507 35.638 57.7097 35.5468C57.7649 35.4518 57.8274 35.3525 57.893 35.2457C58.0246 35.0329 58.1805 34.8023 58.337 34.5421C58.4154 34.4121 58.5033 34.283 58.5904 34.1467C58.6754 34.0087 58.761 33.8652 58.8522 33.721C59.039 33.4357 59.2173 33.1243 59.4135 32.8133C59.4642 32.7367 59.5097 32.6558 59.5561 32.5749L59.6992 32.3327L59.8465 32.0899C59.8965 32.009 59.9403 31.924 59.9885 31.8414C60.0818 31.674 60.1811 31.5089 60.2775 31.3415C60.3687 31.1709 60.4617 31.0013 60.5566 30.8327C60.655 30.6656 60.7373 30.4911 60.8289 30.3217C60.9186 30.1514 61.0137 29.9843 61.0942 29.8125C61.1787 29.6439 61.2647 29.476 61.3521 29.3089C61.4296 29.1419 61.5094 28.976 61.5916 28.8113C61.676 28.6494 61.7458 28.4857 61.8202 28.3267L61.9316 28.0909C61.9698 28.0149 62.0055 27.9377 62.0386 27.8594C62.1037 27.7093 62.1706 27.56 62.2393 27.4116C62.3117 27.2681 62.3656 27.1251 62.4241 26.9887L62.5983 26.5964C62.6538 26.4733 62.6967 26.3582 62.7458 26.2481C62.7949 26.1387 62.8383 26.0349 62.8839 25.9389L62.9168 25.868L62.9452 25.7934C62.9632 25.7447 62.9822 25.6986 62.9999 25.6547C63.1399 25.3035 63.2395 25.1054 63.2395 25.1054C63.3131 24.959 63.4418 24.8479 63.5974 24.7964C63.7529 24.7449 63.9225 24.7574 64.0689 24.831C64.2417 24.9176 64.3566 25.0775 64.3953 25.2526Z" fill="#FFDF95"/>
<path d="M41.8821 43.3089C41.9685 44.1708 41.7519 44.4132 40.8653 44.5021C39.9786 44.591 39.7182 44.3964 39.6318 43.5346C39.5454 42.6727 39.762 42.4303 40.6487 42.3414C41.5353 42.2525 41.7957 42.4471 41.8821 43.3089Z" fill="#8E6049"/>
<path d="M62.4508 18.1625C62.9245 18.115 63.2752 17.6391 63.2678 17.0612C63.2469 15.4362 64.4968 12.9128 62.7737 12.0314C60.7338 10.988 59.1301 12.4214 59.0364 12.8269C58.7511 14.0607 60.9276 14.2598 61.6141 17.7113C61.6868 18.0761 62.1318 18.1944 62.4508 18.1625Z" fill="#966C5A"/>
<path d="M62.208 14.483C61.6599 15.372 62.2086 18.1866 62.4502 18.1624C62.9239 18.1149 64.1857 11.2758 62.208 14.483Z" fill="#1AC84B"/>
</svg>
