<svg width="37" height="35" viewBox="0 0 37 35" fill="none" xmlns="http://www.w3.org/2000/svg">
<path d="M30.6187 6.49358C30.6187 6.49358 30.6289 6.63436 30.6319 6.8911L30.6332 6.99293C30.6334 7.02895 30.6351 7.06474 30.6313 7.11039C30.6235 7.2056 30.6156 7.3008 30.6077 7.39601C30.5982 7.49836 30.5893 7.61357 30.5761 7.7287C30.5625 7.84173 30.5495 7.96326 30.5316 8.09027C30.4477 8.70447 30.3201 9.31189 30.1497 9.9079C29.9535 10.6004 29.6775 11.3707 29.2973 12.1822C28.9186 12.9941 28.43 13.8422 27.8305 14.6906C27.7578 14.7988 27.6779 14.9016 27.5994 15.0073L27.4802 15.1658L27.4202 15.2455L27.4052 15.2655C27.4525 15.222 27.3322 15.3361 27.3424 15.3273L27.3362 15.3357L27.3111 15.369C27.1783 15.5477 27.0383 15.7224 26.8998 15.9025L26.8867 15.9193L26.8683 15.9401L26.8312 15.9817L26.7566 16.0652L26.6044 16.2309L26.2943 16.5639L26.2159 16.6472L26.1423 16.7226C26.0932 16.7733 26.0434 16.8233 25.993 16.8727L25.6893 17.1728C24.8676 17.9688 23.9343 18.7101 22.9207 19.3685C21.8929 20.034 20.8036 20.5994 19.6679 21.0569C18.5313 21.5161 17.354 21.8669 16.1514 22.1046C14.9627 22.3382 13.7725 22.4551 12.6236 22.461C11.4744 22.4673 10.3675 22.3651 9.33898 22.1817C8.82422 22.0943 8.32984 21.975 7.8572 21.8524C7.38576 21.7181 6.93522 21.583 6.51214 21.4222L6.19825 21.3076C6.09507 21.2696 5.99482 21.224 5.89526 21.1832C5.69627 21.1005 5.50345 21.0173 5.3171 20.9338C5.13143 20.8477 4.9529 20.758 4.78046 20.671L4.52628 20.5422C4.44303 20.5 4.36324 20.4516 4.2839 20.4077C3.96783 20.2273 3.6753 20.0601 3.41547 19.8828C3.1546 19.7086 2.91711 19.5514 2.71203 19.3906L2.42175 19.1653L2.17088 18.961C2.01785 18.83 1.89166 18.7128 1.78983 18.6183C1.58641 18.4293 1.48361 18.3213 1.48361 18.3213C0.526817 17.3159 0.566223 15.7253 1.5716 14.7685C1.97463 14.3837 2.49458 14.1445 3.04901 14.0888L3.35042 14.0583C3.35042 14.0583 3.47676 14.0455 3.70297 14.0348C3.816 14.0296 3.95475 14.0224 4.11312 14.0208L4.37144 14.0057L4.65856 13.9947C4.85777 13.9928 5.08127 13.9733 5.3165 13.9657C5.55098 13.9609 5.80644 13.937 6.07078 13.9264C6.33556 13.9147 6.61727 13.8853 6.90537 13.8719C7.19738 13.8404 7.496 13.827 7.80689 13.7906L8.04084 13.7673L8.15861 13.7577L8.2778 13.743L8.51815 13.7136L8.76037 13.689C8.92349 13.6651 9.08803 13.642 9.25362 13.6233L9.37816 13.6079L9.5036 13.5872L9.75567 13.5504C10.4306 13.4481 11.126 13.3242 11.831 13.1729C13.2412 12.8722 14.69 12.463 16.1034 11.9387C16.8092 11.6762 17.5054 11.3886 18.1907 11.0765C18.8744 10.7671 19.54 10.4322 20.1885 10.0879L20.4285 9.95528C20.4683 9.93309 20.5085 9.91136 20.5493 9.89046L20.6102 9.85879L20.6623 9.83067L20.8701 9.71967L20.9748 9.665L21.0282 9.63875L21.0549 9.62567L21.0684 9.61905L21.0862 9.6074C21.2767 9.48369 21.462 9.35795 21.6507 9.23981L21.6859 9.21755L21.6947 9.21198C21.71 9.19852 21.5946 9.30802 21.6467 9.25966L21.6609 9.25094L21.7174 9.21619L21.8304 9.14701L22.0551 9.00894C22.649 8.63864 23.2191 8.26639 23.7469 7.8976C24.2413 7.55296 24.7291 7.19889 25.21 6.8356C25.6543 6.50238 26.046 6.1927 26.3776 5.9319C26.459 5.86595 26.54 5.80473 26.6147 5.74578C26.6884 5.68832 26.7564 5.63922 26.8209 5.59011L27.0008 5.45467C27.0288 5.43625 27.0579 5.40962 27.0851 5.38661L27.1624 5.32036C27.3574 5.15334 27.4699 5.06806 27.4699 5.06806C28.3354 4.41207 29.5687 4.58195 30.2247 5.44745C30.4554 5.75022 30.5923 6.11389 30.6187 6.49358V6.49358Z" fill="#FFAE2C"/>
<path d="M2.36236 16.3141C2.05449 17.0171 1.78188 17.1101 1.05874 16.7934C0.335522 16.4768 0.219034 16.2133 0.526836 15.5103C0.834637 14.8073 2.67024 15.6111 2.36236 16.3141V16.3141Z" fill="#B28E7F"/>
<path d="M32.2084 7.39679C32.2084 7.39679 32.2421 7.55246 32.2864 7.83891L32.3039 7.95254C32.31 7.99277 32.3176 8.03248 32.3206 8.08406L32.3396 8.40698C32.3452 8.52287 32.3537 8.65297 32.3572 8.78374C32.3599 8.91219 32.3647 9.05003 32.3649 9.19487C32.3689 9.89451 32.3229 10.5935 32.2272 11.2866C32.118 12.0916 31.9321 12.9963 31.6363 13.9633C31.3421 14.9308 30.931 15.9563 30.3961 16.9995C30.332 17.1319 30.2591 17.2595 30.1881 17.3901L30.0802 17.5862L30.0259 17.6848L30.0122 17.7095C30.0581 17.6534 29.9418 17.8001 29.9518 17.7886L29.9461 17.7989L29.9235 17.8401C29.8036 18.0609 29.6748 18.2784 29.5487 18.5016L29.5368 18.5225L29.5195 18.5486L29.4846 18.601L29.4145 18.7061L29.2708 18.9154L28.9773 19.3368L28.903 19.4423L28.8327 19.5383C28.786 19.6026 28.7382 19.6662 28.6898 19.7297L28.3981 20.1132C27.6065 21.1333 26.6815 22.1101 25.6535 23.0068C24.6108 23.9139 23.4836 24.7188 22.2872 25.4106C21.0902 26.1043 19.8304 26.6835 18.5245 27.1404C17.2333 27.5903 15.922 27.9102 14.639 28.0994C13.3559 28.2892 12.1028 28.3509 10.9243 28.3095C10.3353 28.2936 9.7639 28.239 9.2162 28.177C8.66813 28.102 8.14314 28.0226 7.64486 27.9102L7.27592 27.8321C7.15461 27.806 7.03534 27.771 6.91758 27.7412C6.68818 27.6821 6.45959 27.6198 6.23189 27.5544C6.01072 27.4877 5.79699 27.416 5.59042 27.3461L5.28592 27.2426C5.1862 27.2087 5.08934 27.1672 4.99369 27.1308C4.80928 27.0589 4.62575 26.9847 4.44313 26.9083C4.26649 26.839 4.09976 26.7574 3.93988 26.6823C3.62065 26.5292 3.3303 26.3913 3.07559 26.2441C2.8489 26.1172 2.62439 25.9864 2.40215 25.8519C2.24045 25.7465 2.08048 25.6384 1.92229 25.5278C1.66495 25.3488 1.5329 25.2445 1.5329 25.2445C0.303946 24.2732 0.09511 22.4896 1.06642 21.2606C1.4556 20.7666 1.99855 20.4167 2.60919 20.2662L2.94113 20.1843C2.94113 20.1843 3.08025 20.1498 3.33135 20.102C3.45679 20.0782 3.61065 20.0484 3.78782 20.0194C3.96658 19.9832 4.16955 19.9444 4.39275 19.9052C4.61505 19.8714 4.86171 19.8141 5.12334 19.7683C5.38459 19.7256 5.66622 19.6583 5.95996 19.6044C6.254 19.5492 6.56413 19.4717 6.88389 19.4108C7.04649 19.3705 7.2097 19.3326 7.37345 19.2973C7.53912 19.2625 7.70765 19.2182 7.87836 19.1766L8.13608 19.1135L8.2661 19.084L8.39695 19.0486L8.66076 18.9775L8.9275 18.9116L9.1965 18.8332C9.33262 18.7963 9.46876 18.7594 9.60492 18.7227L9.74179 18.6796C9.83323 18.6511 9.92535 18.6255 10.0176 18.5983C10.7555 18.3768 11.5129 18.1277 12.2765 17.8466C13.8046 17.2864 15.3584 16.5988 16.8543 15.7883C17.6012 15.3827 18.3334 14.9507 19.0496 14.493C19.7643 14.0386 20.455 13.5585 21.1248 13.0706L21.3719 12.8843C21.4129 12.853 21.4545 12.8224 21.4966 12.7926L21.5596 12.7476L21.6133 12.7079L21.8279 12.5508L21.9362 12.473L21.9917 12.4352L22.0196 12.4163L22.0335 12.4067L22.0516 12.3909C22.2448 12.2224 22.4319 12.0524 22.624 11.8903L22.6597 11.8598L22.6687 11.8522C22.6837 11.8348 22.5721 11.9754 22.6226 11.9131L22.637 11.9012L22.6947 11.8534L22.8099 11.7581L23.0391 11.5682C23.6438 11.06 24.2217 10.5535 24.7528 10.0574C25.2505 9.59371 25.7393 9.12056 26.2189 8.63823C26.6623 8.19521 27.0508 7.78702 27.3798 7.44282C27.4603 7.35618 27.541 7.27489 27.6153 7.19713C27.6885 7.12118 27.7566 7.0556 27.8209 6.9904L28.0003 6.81044C28.0286 6.7854 28.057 6.75103 28.0836 6.72095L28.1595 6.63462C28.3509 6.41699 28.463 6.30381 28.463 6.30381C29.3258 5.4332 30.731 5.42695 31.6016 6.28975C31.9075 6.59174 32.1184 6.97653 32.2084 7.39679Z" fill="#FFB93E"/>
<path d="M2.19624 22.8621C1.96402 23.6966 -0.214805 23.0902 0.0174188 22.2558C0.249642 21.4213 0.53947 21.274 1.39798 21.5129C2.25648 21.7518 2.42847 22.0276 2.19624 22.8621Z" fill="#A07562"/>
<path d="M30.9632 0.498682C30.8762 0.474807 30.7852 0.468972 30.6958 0.481536C30.6031 0.402008 30.4991 0.336582 30.3872 0.287365C29.9378 0.0905613 29.4493 0.525078 29.2007 0.797459C28.4441 1.62611 30.1466 2.71308 28.9369 4.71465C28.7664 4.99666 28.9117 5.72303 29.1719 5.83697C29.4655 5.96549 29.8113 5.87186 30.0684 5.62264C30.061 5.64054 30.0541 5.65821 30.0464 5.67626C29.9007 6.0185 30.1787 6.80699 30.4875 6.89295C30.9462 7.02057 31.4456 6.70434 31.6484 6.16319C32.2186 4.64133 32.8277 1.01758 30.9632 0.498682Z" fill="#8E6049"/>
<path d="M34.9096 6.2907C34.9096 6.2907 34.987 6.42448 35.1149 6.67679L35.1656 6.77688C35.1833 6.81253 35.2022 6.84629 35.2214 6.89585L35.3403 7.20177C35.382 7.31172 35.4306 7.43497 35.4749 7.55921C35.5177 7.68103 35.565 7.81098 35.6108 7.9492C35.8342 8.61618 36.0121 9.29751 36.1433 9.98853C36.2977 10.791 36.4141 11.7128 36.4504 12.7293C36.4883 13.7458 36.4378 14.8553 36.2802 16.0227C36.2637 16.1694 36.2376 16.3149 36.2141 16.4624L36.1778 16.6842L36.1594 16.7958L36.1547 16.8238C36.1782 16.7511 36.1201 16.9387 36.1254 16.9233L36.1235 16.9349L36.1157 16.981C36.0754 17.2275 36.0265 17.4744 35.9817 17.7254L35.9774 17.7489L35.9698 17.7796L35.9547 17.8412L35.924 17.9647C35.9024 18.0472 35.8808 18.1297 35.8592 18.2122L35.7252 18.7115L35.6909 18.8367L35.657 18.9512C35.6345 19.0278 35.6111 19.1043 35.587 19.1805L35.4421 19.6417C35.0385 20.872 34.505 22.1097 33.8482 23.3076C33.1815 24.5189 32.4032 25.6653 31.5233 26.7318C30.6412 27.8053 29.656 28.7929 28.6092 29.6687C27.5626 30.5449 26.4543 31.3093 25.3269 31.943C24.1997 32.5775 23.0568 33.0845 21.9473 33.4715C21.3945 33.6695 20.8444 33.8256 20.3139 33.9673C19.7783 34.0966 19.2628 34.2145 18.7603 34.2927L18.39 34.3552C18.2681 34.3755 18.145 34.3869 18.025 34.4026C17.7847 34.4326 17.5502 34.459 17.322 34.4817C17.0928 34.5013 16.8688 34.5138 16.6521 34.5255L16.3325 34.5424C16.2278 34.548 16.1231 34.5456 16.0213 34.5474C15.6127 34.5492 15.2343 34.5512 14.8822 34.5254C14.5308 34.5032 14.2117 34.4851 13.9221 34.4452L13.5136 34.3915L13.1552 34.3367C12.9329 34.2968 12.7446 34.2558 12.5927 34.2227C12.2888 34.1565 12.1284 34.112 12.1284 34.112C10.6348 33.6977 9.75995 32.151 10.1742 30.6575C10.354 30.0059 10.7636 29.4415 11.3275 29.0687L11.6045 28.8856C11.6045 28.8856 11.7221 28.8079 11.9397 28.6793C12.0484 28.6151 12.1816 28.5357 12.3373 28.4506L12.5844 28.2999L12.8624 28.1374C13.0585 28.0301 13.269 27.8922 13.4979 27.7592C13.7275 27.6294 13.9674 27.4691 14.2237 27.3164C14.4798 27.1625 14.7429 26.9816 15.0212 26.812C15.2935 26.6227 15.5822 26.4469 15.8703 26.2409L16.0895 26.09L16.2008 26.0159L16.3108 25.9358L16.5327 25.7748L16.7591 25.617L16.9831 25.4468L17.2112 25.2795L17.326 25.1953L17.4387 25.1054L17.6677 24.929C18.2787 24.4528 18.8964 23.9407 19.5057 23.3936C20.1149 22.8467 20.7183 22.2683 21.3006 21.6578C21.8832 21.0478 22.444 20.4061 22.9794 19.745C24.0471 18.4199 25.0044 17.0103 25.8261 15.5994L25.9765 15.3341C26.0014 15.29 26.0267 15.246 26.0532 15.2026L26.0924 15.1372L26.1246 15.0806L26.2541 14.8565L26.3202 14.745L26.3546 14.6898L26.3719 14.6622L26.3805 14.6483L26.3908 14.6267C26.5012 14.3968 26.6061 14.168 26.7176 13.9445L26.7383 13.9026L26.7435 13.8921C26.7512 13.8695 26.6954 14.0497 26.7209 13.9696L26.7291 13.9532L26.762 13.8877L26.8278 13.757L26.9583 13.4971C27.2998 12.8052 27.615 12.1284 27.8909 11.4816C28.1487 10.8791 28.3946 10.2715 28.6283 9.65922C28.8448 9.09829 29.0252 8.59105 29.1783 8.1642C29.2148 8.05757 29.2535 7.95575 29.288 7.85956C29.3222 7.76579 29.3555 7.68502 29.3861 7.605L29.472 7.38414C29.4869 7.35308 29.4983 7.31029 29.5097 7.27291L29.5422 7.16552C29.6242 6.8948 29.6772 6.74958 29.6772 6.74958C30.2266 5.24539 31.8914 4.47149 33.3955 5.02092C34.0584 5.26284 34.5811 5.72465 34.9096 6.2907V6.2907Z" fill="#FFCE6C"/>
<path d="M34.3955 13.5945C34.3955 13.5945 34.4423 13.8113 34.4895 14.1864C34.4956 14.2333 34.5023 14.2827 34.5076 14.3344L34.5163 14.4137L34.5205 14.5023C34.5267 14.6234 34.5275 14.7543 34.531 14.8957C34.5327 15.0361 34.5332 15.1892 34.5293 15.3457L34.4974 15.8299C34.4758 16.1695 34.4171 16.5302 34.3512 16.914C34.3366 17.0107 34.3137 17.1059 34.2914 17.2027L34.2214 17.4965C34.1724 17.6943 34.1247 17.8982 34.0569 18.0981C33.9924 18.3031 33.9253 18.5073 33.8557 18.7107C33.7787 18.9139 33.6947 19.1174 33.6106 19.323C33.5663 19.4246 33.5273 19.5297 33.4776 19.6295L33.3311 19.9313L33.181 20.2331C33.1322 20.3346 33.0771 20.4324 33.0206 20.5296C32.9096 20.7246 32.7967 20.9186 32.6821 21.1116C32.5616 21.2983 32.4386 21.4835 32.3132 21.6669C32.1927 21.8519 32.0587 22.025 31.9268 22.1958C31.7932 22.3654 31.6666 22.5368 31.528 22.694C31.2517 23.009 30.9842 23.3115 30.7046 23.574L30.5008 23.77C30.4334 23.8337 30.3687 23.8979 30.2995 23.9559C30.1615 24.0722 30.032 24.1871 29.9016 24.2914C29.6481 24.5066 29.3971 24.6829 29.175 24.8372C29.0631 24.9136 28.9602 24.9862 28.8615 25.0492C28.7697 25.1055 28.677 25.1605 28.5836 25.2141C28.4532 25.2901 28.3209 25.3629 28.187 25.4326C28.0941 25.4807 28.0434 25.5047 28.0434 25.5047C27.9273 25.5597 27.7969 25.5765 27.6707 25.5529C27.5444 25.5294 27.4289 25.4665 27.3405 25.3734C27.2521 25.2802 27.1954 25.1615 27.1784 25.0343C27.1615 24.907 27.1852 24.7776 27.2461 24.6646L27.2566 24.6454L27.3306 24.51C27.3799 24.4231 27.4525 24.2966 27.5491 24.1422C27.5965 24.064 27.6509 23.9799 27.7099 23.8887C27.7651 23.7937 27.8276 23.6944 27.8932 23.5877C28.0249 23.3748 28.1808 23.1442 28.3373 22.884C28.4156 22.754 28.5036 22.6249 28.5906 22.4886C28.6756 22.3506 28.7612 22.2071 28.8525 22.0629C29.0393 21.7776 29.2175 21.4662 29.4137 21.1553C29.4645 21.0786 29.5099 20.9977 29.5564 20.9168L29.6995 20.6746L29.8467 20.4318C29.8967 20.3509 29.9405 20.2659 29.9888 20.1833C30.082 20.0159 30.1813 19.8508 30.2778 19.6834C30.369 19.5128 30.462 19.3432 30.5569 19.1747C30.6552 19.0076 30.7376 18.833 30.8292 18.6636C30.9188 18.4933 31.0139 18.3262 31.0945 18.1544C31.179 17.9858 31.2649 17.8179 31.3524 17.6508C31.4298 17.4838 31.5097 17.318 31.5919 17.1532C31.6762 16.9913 31.746 16.8276 31.8204 16.6686L31.9319 16.4328C31.9701 16.3568 32.0058 16.2796 32.0389 16.2013C32.1039 16.0512 32.1708 15.902 32.2395 15.7535C32.3119 15.61 32.3659 15.4671 32.4244 15.3306L32.5985 14.9383C32.654 14.8152 32.697 14.7001 32.7461 14.5901C32.7952 14.4806 32.8386 14.3768 32.8841 14.2808L32.9171 14.2099L32.9454 14.1353C32.9635 14.0867 32.9824 14.0405 33.0002 13.9966C33.1401 13.6454 33.2398 13.4473 33.2398 13.4473C33.3134 13.3009 33.4421 13.1898 33.5976 13.1383C33.7531 13.0869 33.9227 13.0993 34.0691 13.1729C34.2419 13.2595 34.3568 13.4195 34.3955 13.5945V13.5945Z" fill="#FFDF95"/>
<path d="M11.8819 31.651C11.9683 32.5129 11.7516 32.7553 10.865 32.8441C9.97838 32.933 9.71795 32.7385 9.63155 31.8766C9.54514 31.0147 9.7618 30.7723 10.6484 30.6834C11.5351 30.5946 11.7955 30.7891 11.8819 31.651V31.651Z" fill="#8E6049"/>
<path d="M32.4508 6.50426C32.9245 6.4568 33.2752 5.98093 33.2678 5.403C33.2469 3.77796 34.4968 1.25456 32.7737 0.373195C30.7338 -0.670231 29.1301 0.763192 29.0364 1.16868C28.7511 2.40252 30.9276 2.60158 31.6141 6.05312C31.6868 6.41785 32.1318 6.53622 32.4508 6.50426V6.50426Z" fill="#966C5A"/>
<path d="M32.208 2.82483C31.6599 3.71379 32.2086 6.52845 32.4502 6.50423C32.9239 6.4567 34.1857 -0.382385 32.208 2.82483Z" fill="#1AC84B"/>
</svg>
