<svg width="19" height="19" viewBox="0 0 19 19" fill="none" xmlns="http://www.w3.org/2000/svg">
<g clip-path="url(#clip0_277_13263)">
<path d="M9.83268 1.65072C12.2819 1.65072 12.5719 1.66146 13.5352 1.70443C14.4303 1.74381 14.9137 1.89421 15.236 2.01953C15.6621 2.18424 15.9701 2.38477 16.2887 2.70345C16.611 3.02572 16.8079 3.33008 16.9727 3.75619C17.098 4.07845 17.2484 4.56543 17.2878 5.45703C17.3307 6.42383 17.3415 6.71387 17.3415 9.15951C17.3415 11.6087 17.3307 11.8988 17.2878 12.862C17.2484 13.7572 17.098 14.2406 16.9727 14.5628C16.8079 14.9889 16.6074 15.2969 16.2887 15.6156C15.9665 15.9378 15.6621 16.1348 15.236 16.2995C14.9137 16.4248 14.4268 16.5752 13.5352 16.6146C12.5684 16.6576 12.2783 16.6683 9.83268 16.6683C7.38346 16.6683 7.09343 16.6576 6.13021 16.6146C5.23503 16.5752 4.75163 16.4248 4.42936 16.2995C4.00326 16.1348 3.69531 15.9342 3.37663 15.6156C3.05436 15.2933 2.85742 14.9889 2.69271 14.5628C2.56738 14.2406 2.41699 13.7536 2.3776 12.862C2.33464 11.8952 2.32389 11.6051 2.32389 9.15951C2.32389 6.71029 2.33464 6.42025 2.3776 5.45703C2.41699 4.56185 2.56738 4.07845 2.69271 3.75619C2.85742 3.33008 3.05794 3.02214 3.37663 2.70345C3.69889 2.38118 4.00326 2.18424 4.42936 2.01953C4.75163 1.89421 5.23861 1.74381 6.13021 1.70443C7.09343 1.66146 7.38346 1.65072 9.83268 1.65072ZM9.83268 0C7.34408 0 7.03255 0.0107422 6.05501 0.0537109C5.08106 0.0966797 4.41146 0.254232 3.83138 0.479818C3.22624 0.716146 2.71419 1.02767 2.20573 1.53971C1.69369 2.04818 1.38216 2.56022 1.14583 3.16178C0.920247 3.74544 0.762695 4.41146 0.719727 5.38542C0.676758 6.36654 0.666016 6.67806 0.666016 9.16667C0.666016 11.6553 0.676758 11.9668 0.719727 12.9443C0.762695 13.9183 0.920247 14.5879 1.14583 15.168C1.38216 15.7731 1.69369 16.2852 2.20573 16.7936C2.71419 17.3021 3.22624 17.6172 3.8278 17.8499C4.41146 18.0755 5.07747 18.2331 6.05143 18.276C7.02897 18.319 7.34049 18.3298 9.8291 18.3298C12.3177 18.3298 12.6292 18.319 13.6068 18.276C14.5807 18.2331 15.2503 18.0755 15.8304 17.8499C16.432 17.6172 16.944 17.3021 17.4525 16.7936C17.9609 16.2852 18.276 15.7731 18.5088 15.1716C18.7344 14.5879 18.8919 13.9219 18.9349 12.9479C18.9779 11.9704 18.9886 11.6589 18.9886 9.17025C18.9886 6.68164 18.9779 6.37012 18.9349 5.39258C18.8919 4.41862 18.7344 3.74902 18.5088 3.16895C18.2832 2.56022 17.9717 2.04818 17.4596 1.53971C16.9512 1.03125 16.4391 0.716146 15.8376 0.483398C15.2539 0.257812 14.5879 0.10026 13.6139 0.0572917C12.6328 0.0107422 12.3213 0 9.83268 0Z" fill="white"/>
<path d="M9.83268 4.45801C7.23307 4.45801 5.12402 6.56706 5.12402 9.16667C5.12402 11.7663 7.23307 13.8753 9.83268 13.8753C12.4323 13.8753 14.5413 11.7663 14.5413 9.16667C14.5413 6.56706 12.4323 4.45801 9.83268 4.45801ZM9.83268 12.221C8.14616 12.221 6.77832 10.8532 6.77832 9.16667C6.77832 7.48014 8.14616 6.1123 9.83268 6.1123C11.5192 6.1123 12.887 7.48014 12.887 9.16667C12.887 10.8532 11.5192 12.221 9.83268 12.221Z" fill="white"/>
<path d="M15.8275 4.27165C15.8275 4.88037 15.3333 5.37093 14.7282 5.37093C14.1195 5.37093 13.6289 4.87679 13.6289 4.27165C13.6289 3.66292 14.123 3.17236 14.7282 3.17236C15.3333 3.17236 15.8275 3.6665 15.8275 4.27165Z" fill="white"/>
</g>
<defs>
<clipPath id="clip0_277_13263">
<rect width="18.3333" height="18.3333" fill="white" transform="translate(0.666992)"/>
</clipPath>
</defs>
</svg>
