<svg width="19" height="19" viewBox="0 0 19 19" fill="none" xmlns="http://www.w3.org/2000/svg">
<g clip-path="url(#clip0_277_13260)">
<path d="M16.9782 0H1.35547C0.607096 0 0.00195312 0.59082 0.00195312 1.32129V17.0085C0.00195312 17.7389 0.607096 18.3333 1.35547 18.3333H16.9782C17.7266 18.3333 18.3353 17.7389 18.3353 17.012V1.32129C18.3353 0.59082 17.7266 0 16.9782 0ZM5.44108 15.6227H2.71973V6.87142H5.44108V15.6227ZM4.0804 5.67904C3.20671 5.67904 2.5013 4.97363 2.5013 4.10352C2.5013 3.2334 3.20671 2.52799 4.0804 2.52799C4.95052 2.52799 5.65592 3.2334 5.65592 4.10352C5.65592 4.97005 4.95052 5.67904 4.0804 5.67904ZM15.6247 15.6227H12.9069V11.3688C12.9069 10.3555 12.889 9.0485 11.4925 9.0485C10.0781 9.0485 9.86328 10.1549 9.86328 11.2972V15.6227H7.14909V6.87142H9.75586V8.06738H9.79167C10.1533 7.37988 11.0413 6.65299 12.3626 6.65299C15.1162 6.65299 15.6247 8.46484 15.6247 10.821V15.6227V15.6227Z" fill="white"/>
</g>
<defs>
<clipPath id="clip0_277_13260">
<rect width="18.3333" height="18.3333" fill="white" transform="translate(0.000976562)"/>
</clipPath>
</defs>
</svg>
