<svg width="14" height="18" viewBox="0 0 14 18" fill="none" xmlns="http://www.w3.org/2000/svg">
<path d="M6.99967 8.99984C7.45801 8.99984 7.85051 8.8365 8.17717 8.50984C8.50329 8.18373 8.66634 7.7915 8.66634 7.33317C8.66634 6.87484 8.50329 6.48234 8.17717 6.15567C7.85051 5.82956 7.45801 5.6665 6.99967 5.6665C6.54134 5.6665 6.14912 5.82956 5.82301 6.15567C5.49634 6.48234 5.33301 6.87484 5.33301 7.33317C5.33301 7.7915 5.49634 8.18373 5.82301 8.50984C6.14912 8.8365 6.54134 8.99984 6.99967 8.99984ZM6.99967 17.3332C4.76356 15.4304 3.09356 13.6629 1.98967 12.0307C0.88523 10.399 0.333008 8.88873 0.333008 7.49984C0.333008 5.4165 1.00329 3.75678 2.34384 2.52067C3.68384 1.28456 5.23579 0.666504 6.99967 0.666504C8.76356 0.666504 10.3155 1.28456 11.6555 2.52067C12.9961 3.75678 13.6663 5.4165 13.6663 7.49984C13.6663 8.88873 13.1144 10.399 12.0105 12.0307C10.9061 13.6629 9.23579 15.4304 6.99967 17.3332Z" fill="white"/>
</svg>
