<svg width="16" height="16" viewBox="0 0 16 16" fill="none" xmlns="http://www.w3.org/2000/svg">
<path d="M14.6667 8C14.4444 8 14.2467 7.92 14.0733 7.76C13.8994 7.60056 13.7986 7.40278 13.7708 7.16667C13.5903 5.875 13.0453 4.77417 12.1358 3.86417C11.2258 2.95472 10.125 2.40972 8.83333 2.22917C8.59722 2.20139 8.39944 2.10417 8.24 1.9375C8.08 1.77083 8 1.56944 8 1.33333C8 1.09722 8.08333 0.899167 8.25 0.739167C8.41667 0.579722 8.61111 0.513889 8.83333 0.541667C10.5833 0.736111 12.0764 1.45139 13.3125 2.6875C14.5486 3.92361 15.2639 5.41667 15.4583 7.16667C15.4861 7.38889 15.42 7.58333 15.26 7.75C15.1006 7.91667 14.9028 8 14.6667 8ZM11.1875 8C11.0069 8 10.8472 7.9375 10.7083 7.8125C10.5694 7.6875 10.4653 7.52083 10.3958 7.3125C10.2847 6.90972 10.0731 6.55194 9.76083 6.23917C9.44806 5.92694 9.09028 5.71528 8.6875 5.60417C8.47917 5.53472 8.3125 5.43056 8.1875 5.29167C8.0625 5.15278 8 4.98611 8 4.79167C8 4.51389 8.09722 4.28806 8.29167 4.11417C8.48611 3.94083 8.70139 3.88194 8.9375 3.9375C9.71528 4.11806 10.3856 4.48944 10.9483 5.05167C11.5106 5.61444 11.8819 6.28472 12.0625 7.0625C12.1181 7.29861 12.0556 7.51389 11.875 7.70833C11.6944 7.90278 11.4653 8 11.1875 8ZM14.625 15.5C12.8333 15.5 11.0869 15.1006 9.38583 14.3017C7.68417 13.5033 6.17722 12.4478 4.865 11.135C3.55222 9.82278 2.49667 8.31583 1.69833 6.61417C0.899445 4.91306 0.5 3.16667 0.5 1.375C0.5 1.125 0.583333 0.916667 0.75 0.75C0.916667 0.583333 1.125 0.5 1.375 0.5H4.75C4.94444 0.5 5.11806 0.5625 5.27083 0.6875C5.42361 0.8125 5.51389 0.972222 5.54167 1.16667L6.08333 4.08333C6.11111 4.27778 6.10778 4.45472 6.07333 4.61417C6.03833 4.77417 5.95833 4.91667 5.83333 5.04167L3.83333 7.08333C4.41667 8.08333 5.14583 9.02083 6.02083 9.89583C6.89583 10.7708 7.86111 11.5278 8.91667 12.1667L10.875 10.2083C11 10.0833 11.1633 9.98944 11.365 9.92667C11.5661 9.86444 11.7639 9.84722 11.9583 9.875L14.8333 10.4583C15.0278 10.5 15.1875 10.5936 15.3125 10.7392C15.4375 10.8853 15.5 11.0556 15.5 11.25V14.625C15.5 14.875 15.4167 15.0833 15.25 15.25C15.0833 15.4167 14.875 15.5 14.625 15.5Z" fill="white"/>
</svg>
