<svg width="45" height="45" viewBox="0 0 45 45" fill="none" xmlns="http://www.w3.org/2000/svg">
<path d="M13.4963 36C11.022 36 9.02002 38.025 9.02002 40.5C9.02002 42.975 11.022 45 13.4963 45C15.9706 45 17.995 42.975 17.995 40.5C17.995 38.025 15.9706 36 13.4963 36ZM2.24938 4.5H4.49876L12.5965 21.5775L9.55987 27.0675C7.91782 30.0825 10.0772 33.75 13.4963 33.75H38.2395C39.4766 33.75 40.4889 32.7375 40.4889 31.5C40.4889 30.2625 39.4766 29.25 38.2395 29.25H13.4963L15.9706 24.75H32.7285C34.4155 24.75 35.9001 23.8275 36.6649 22.4325L44.7177 7.83C44.9073 7.48896 45.0045 7.10431 44.9998 6.71413C44.9952 6.32394 44.8887 5.94174 44.691 5.60534C44.4933 5.26894 44.2112 4.99001 43.8727 4.79614C43.5341 4.60228 43.1508 4.5002 42.7607 4.5H9.46989L7.96281 1.2825C7.78203 0.898442 7.49561 0.573844 7.13708 0.346713C6.77855 0.119582 6.36275 -0.000681437 5.93837 2.9044e-06H2.24938C1.01222 2.9044e-06 0 1.0125 0 2.25C0 3.4875 1.01222 4.5 2.24938 4.5ZM35.9901 36C33.5158 36 31.5138 38.025 31.5138 40.5C31.5138 42.975 33.5158 45 35.9901 45C38.4644 45 40.4889 42.975 40.4889 40.5C40.4889 38.025 38.4644 36 35.9901 36Z" fill="#4B9E47"/>
</svg>
