<svg width="23" height="23" viewBox="0 0 23 23" fill="none" xmlns="http://www.w3.org/2000/svg">
<path opacity="0.75" d="M21.4899 1.55993C21.301 1.36886 21.076 1.21728 20.8279 1.11402C20.5799 1.01077 20.3138 0.957902 20.0451 0.958501H14.4441C14.0767 0.959186 13.7244 1.10473 13.4636 1.36355L2.26656 12.5583C1.8845 12.9411 1.66992 13.4599 1.66992 14.0008C1.66992 14.5417 1.8845 15.0605 2.26656 15.4433L7.59739 20.7741C7.98034 21.1564 8.4993 21.3711 9.04036 21.3711C9.58142 21.3711 10.1004 21.1564 10.4833 20.7741L21.6758 9.58396C21.9351 9.3236 22.0812 8.97139 22.0822 8.60391V2.99971C22.0839 2.73243 22.0324 2.4675 21.9307 2.22032C21.829 1.97315 21.6791 1.74866 21.4899 1.55993V1.55993ZM17.7082 6.79052C17.4198 6.79052 17.1379 6.70501 16.8982 6.5448C16.6584 6.38459 16.4715 6.15688 16.3612 5.89047C16.2508 5.62405 16.2219 5.3309 16.2782 5.04807C16.3345 4.76525 16.4733 4.50545 16.6772 4.30155C16.8811 4.09764 17.1409 3.95878 17.4238 3.90252C17.7066 3.84627 17.9997 3.87514 18.2661 3.98549C18.5326 4.09585 18.7603 4.28272 18.9205 4.52249C19.0807 4.76226 19.1662 5.04415 19.1662 5.33251C19.1662 5.7192 19.0126 6.09005 18.7392 6.36348C18.4657 6.63691 18.0949 6.79052 17.7082 6.79052Z" stroke="#4B9E47" stroke-width="1.53094"/>
</svg>
