<svg width="15" height="15" viewBox="0 0 15 15" fill="none" xmlns="http://www.w3.org/2000/svg">
<path d="M4.47695 11.7954C3.68947 11.7954 3.05234 12.4397 3.05234 13.2272C3.05234 14.0147 3.68947 14.659 4.47695 14.659C5.26442 14.659 5.90872 14.0147 5.90872 13.2272C5.90872 12.4397 5.26442 11.7954 4.47695 11.7954ZM0.181641 0.34082V1.77264H1.61341L4.19059 7.20639L3.22415 8.96037C3.10961 9.16082 3.04518 9.39707 3.04518 9.64764C3.04518 10.4351 3.68947 11.0795 4.47695 11.0795H13.0676V9.64764H4.77762C4.67739 9.64764 4.59865 9.56889 4.59865 9.46866L4.62012 9.38275L5.26442 8.21582H10.5978C11.1347 8.21582 11.6072 7.9223 11.8506 7.47843L14.4134 2.83218C14.4725 2.72293 14.5022 2.60022 14.4997 2.47604C14.4971 2.35186 14.4624 2.23047 14.399 2.12371C14.3355 2.01696 14.2454 1.92849 14.1375 1.86696C14.0296 1.80542 13.9076 1.77292 13.7834 1.77264H3.19551L2.52258 0.34082H0.181641ZM11.6358 11.7954C10.8483 11.7954 10.2112 12.4397 10.2112 13.2272C10.2112 14.0147 10.8483 14.659 11.6358 14.659C12.4233 14.659 13.0676 14.0147 13.0676 13.2272C13.0676 12.4397 12.4233 11.7954 11.6358 11.7954Z" fill="#4B9E47"/>
</svg>
