<svg width="17" height="17" viewBox="0 0 17 17" fill="none" xmlns="http://www.w3.org/2000/svg">
<path d="M12.3232 10.1674C12.1164 10.0611 11.0861 9.55646 10.8945 9.48816C10.7028 9.41606 10.5624 9.38191 10.4239 9.59441C10.2835 9.80501 9.8851 10.2736 9.75988 10.4159C9.63845 10.5563 9.51512 10.5734 9.30831 10.4691C8.07885 9.85434 7.27249 9.37242 6.46233 7.98168C6.24794 7.61171 6.67673 7.63827 7.07706 6.8395C7.14537 6.69909 7.11122 6.57956 7.05809 6.47331C7.00497 6.36706 6.58756 5.33871 6.413 4.91941C6.24414 4.51148 6.06959 4.5684 5.94247 4.56081C5.82104 4.55322 5.68253 4.55322 5.54213 4.55322C5.40173 4.55322 5.17595 4.60635 4.98432 4.81316C4.79269 5.02376 4.25195 5.53034 4.25195 6.55869C4.25195 7.58704 5.00139 8.58313 5.10385 8.72354C5.2101 8.86394 6.57807 10.9738 8.6784 11.8826C10.0065 12.4556 10.5264 12.5049 11.1905 12.4062C11.5946 12.3455 12.4275 11.9015 12.6002 11.4101C12.7728 10.9206 12.7728 10.5013 12.7216 10.414C12.6704 10.3211 12.53 10.268 12.3232 10.1674Z" fill="#FCFCFC"/>
<path d="M16.3398 5.20625C15.911 4.18739 15.2963 3.27288 14.5127 2.48739C13.7291 1.70379 12.8146 1.08717 11.7939 0.660268C10.7503 0.221987 9.6423 0 8.50011 0H8.46216C7.31238 0.00569196 6.19866 0.233371 5.15134 0.681138C4.14006 1.11373 3.23314 1.72846 2.45714 2.51205C1.68113 3.29565 1.07209 4.20636 0.650889 5.22143C0.214505 6.27254 -0.00558432 7.39007 0.00010764 8.53984C0.0057996 9.85658 0.320755 11.1638 0.910822 12.3326V15.2165C0.910822 15.6984 1.30167 16.0893 1.78359 16.0893H4.66942C5.83817 16.6794 7.14542 16.9943 8.46216 17H8.502C9.6385 17 10.7408 16.7799 11.7787 16.3492C12.7937 15.9261 13.7064 15.319 14.4881 14.543C15.2716 13.767 15.8883 12.86 16.319 11.8488C16.7667 10.8015 16.9944 9.68772 17.0001 8.53795C17.0058 7.38248 16.7819 6.26116 16.3398 5.20625V5.20625ZM13.473 13.5165C12.143 14.8333 10.3785 15.558 8.50011 15.558H8.46785C7.32377 15.5523 6.18727 15.2677 5.18359 14.7327L5.02421 14.6473H2.35279V11.9759L2.26741 11.8165C1.73236 10.8128 1.44776 9.67634 1.44207 8.53225C1.43448 6.64063 2.15736 4.86473 3.48359 3.52712C4.80792 2.18951 6.57812 1.44955 8.46975 1.44196H8.502C9.45067 1.44196 10.3709 1.626 11.2379 1.99029C12.0841 2.34509 12.8431 2.85547 13.4958 3.50815C14.1465 4.15893 14.6588 4.91975 15.0136 5.76596C15.3817 6.64252 15.5657 7.57221 15.5619 8.53225C15.5506 10.422 14.8087 12.1922 13.473 13.5165V13.5165Z" fill="#FCFCFC"/>
</svg>
