<?xml version="1.0" encoding="utf-8"?>
<!-- Generator: Adobe Illustrator 24.1.2, SVG Export Plug-In . SVG Version: 6.00 Build 0)  -->
<svg version="1.1" id="Layer_1" xmlns="http://www.w3.org/2000/svg" xmlns:xlink="http://www.w3.org/1999/xlink" x="0px" y="0px"
	 viewBox="0 0 512 512" style="enable-background:new 0 0 512 512;" xml:space="preserve">
<style type="text/css">
	.st0{fill:#ADBF35;}
</style>
<g>
	<path class="st0" d="M404.85,443.77c-0.46-11.87-6.68-22.79-16.31-29.75c-2.49-1.8-4.96-3.58-7.4-5.34
		c-1.58-1.16-3.14-2.29-4.71-3.42c14.79-15.97,16.1-34.47,2.87-48.39c-12.05-12.65-32.08-13.77-45.38-2.48
		c-6.6,5.58-10.47,12.78-11.47,21.29c-1.43,12.32,3.46,22.31,12.51,30.22c-2.34,1.23-4.62,2.43-6.86,3.61
		c-0.39,0.21-0.77,0.4-1.16,0.61c-2.32,1.21-4.62,2.43-6.97,3.67c-6.78-18.43-19.97-29.56-39.28-33.83
		c24.49-21.5,18.15-48.84,5.25-62.17c-15.23-15.75-40.41-17.02-57.04-2.56c-8.3,7.22-13.06,16.43-14.02,27.3
		c-1.31,15.1,4.69,27.33,16.79,37.44c-19.93,4.3-32.87,15.7-39.61,33.81c-2.34-1.23-4.6-2.41-6.82-3.58
		c-0.57-0.3-1.13-0.59-1.7-0.88c-0.17-0.1-0.33-0.18-0.51-0.26c-1.93-1.02-3.83-2.03-5.73-3.03c15.64-17.68,16.72-35.97,2.88-49.78
		c-12.38-12.33-32.43-12.91-45.42-1.27c-6.57,5.9-10.27,13.34-10.93,22.09c-0.9,11.81,3.97,21.32,11.87,28.13
		c-1.61,1.17-3.22,2.34-4.84,3.51c-2.45,1.78-4.9,3.56-7.34,5.33c-9.61,6.97-15.83,17.87-16.29,29.73
		c-0.02,0.52-0.03,1.04-0.03,1.56v9.14c0.03,2.84,0.01,5.68,0,8.53v32.11c0,1.79,0.49,3.59,1.56,5.02c1.45,1.93,3.54,2.91,6.08,3.33
		c1.27,0.21,2.66,0.29,4.13,0.28c23.43-0.19,46.84-0.07,70.57-0.07c1.28,6.85,5.88,8.35,12.14,8.32
		c36.34-0.15,72.7-0.07,109.04-0.07c7.61,0,9.08-1.01,12.04-8.25h70.67c1.67,0,3.03-0.05,4.19-0.21c3.1-0.41,4.67-1.56,6.25-4.52
		c0.67-1.26,1-2.67,1-4.09v-49.51C404.88,444.82,404.87,444.29,404.85,443.77z M156.93,363.34c9.04,0.1,16.39,7.5,16.37,16.5
		s-7.4,16.41-16.41,16.47c-9.22,0.06-16.73-7.52-16.62-16.77C140.4,370.55,147.94,363.23,156.93,363.34z M189.88,481.28v5.68h-66.16
		v-15.28c0-8.59-0.1-17.17,0.03-25.76c0-0.44,0.03-0.88,0.06-1.31v-0.04c0.37-5.93,2.62-11.16,6.19-15.17
		c0-0.01,0.01-0.01,0.03-0.03c0.25-0.28,0.5-0.54,0.76-0.8c4.45-4.56,10.74-7.33,17.93-7.44c5.86-0.08,11.7-0.18,17.54,0.06
		c12.53,0.5,23.06,10.56,23.48,23.03C190.16,456.56,189.86,468.92,189.88,481.28z M354.94,363.33c9.26-0.14,16.88,7.35,16.85,16.55
		c-0.03,9-7.43,16.39-16.44,16.43c-9.03,0.03-16.45-7.26-16.58-16.29C338.64,371.02,345.96,363.48,354.94,363.33z M347.17,421.13
		c5.84-0.08,11.7-0.18,17.54,0.06c11.3,0.44,21.02,8.64,23.08,19.39c0.06,0.25,0.11,0.5,0.14,0.76c0.04,0.18,0.07,0.36,0.08,0.54
		c0.11,0.76,0.17,1.52,0.19,2.3c0.03,0.88,0.06,1.75,0.07,2.63c0.33,13.19,0.04,26.4,0.04,40.14h-65.68
		c-0.14-1.13-0.41-2.26-0.41-3.39c-0.03-12.53-0.12-25.07,0.01-37.6C322.4,431.86,333.03,421.35,347.17,421.13z M231.26,347.23
		c-0.14-13.78,10.94-25.1,24.63-25.16c13.74-0.07,24.99,11.15,24.93,24.83c-0.05,13.48-11.08,24.52-24.63,24.65
		C242.72,371.68,231.39,360.63,231.26,347.23z M305.66,495.2h-99.02c-0.08-1.7-0.21-3.2-0.21-4.69c-0.01-19.94-0.06-39.87,0-59.81
		c0.07-20.24,14.18-34.27,34.48-34.36c10.34-0.04,20.66-0.07,30.99,0.01c19.32,0.14,33.61,14.28,33.72,33.54
		C305.76,451.53,305.66,473.15,305.66,495.2z"/>
	<path class="st0" d="M476.93,335.38c-5.44-1.8-10.29-3.4-15.62-5.16c4.77-14.74,9.4-29.04,14.18-43.8
		c-5.39-1.6-10.46-3.1-15.52-4.61c-9.69-2.9-13.2-8.69-12.96-18.85c0.37-15.78,0.32-31.57-0.03-47.35
		c-0.21-9.53,3.21-15.29,12.34-18.34c5.35-1.79,10.73-3.47,16.6-5.36c-4.88-14.35-9.6-28.25-14.5-42.66
		c-5.54,1.76-10.73,3.43-15.93,5.04c-9.66,2.99-15.88,0.12-21.49-8.13c-8.58-12.62-17.56-25-26.91-37.06
		c-6.3-8.12-7.13-15.06-1.18-23.41c3.18-4.46,6.44-8.87,9.96-13.72c-12.46-8.81-24.61-17.41-37.33-26.39
		c-3.13,4.69-6.03,9.07-8.98,13.42c-5.9,8.72-12.88,10.25-22.8,6.58c-14.31-5.29-28.82-10.14-43.45-14.48
		c-10.54-3.13-14.6-7.54-14.64-18.63c-0.02-5.28,0-10.57,0-15.9c-15.43,0-30.31,0-45.32,0c0,6.02-0.01,11.48,0,16.94
		c0.02,9.55-4.51,14.62-13.64,17.34c-15.13,4.49-30.16,9.36-45.03,14.63c-9.18,3.25-15.83,1.89-21.76-6.01
		c-3.39-4.52-6.66-9.12-10.21-13.98c-12.27,9.12-24.26,18.04-36.59,27.2c3.53,4.5,6.96,8.75,10.24,13.1
		c5.67,7.51,4.97,14.58-0.68,22.08c-9.59,12.74-18.88,25.73-27.8,38.95c-5.32,7.88-11.51,10.82-20.63,8.07
		c-5.42-1.63-10.79-3.42-16.57-5.26c-4.7,14.39-9.32,28.55-14.12,43.27c5.13,1.52,10.02,2.97,14.91,4.42
		c10.39,3.09,13.86,8.73,13.57,19.44c-0.42,15.26-0.42,30.55-0.04,45.81c0.26,10.64-2.89,15.97-13.03,19.32
		c-5.04,1.67-10.09,3.33-15.76,5.2c4.84,14.32,9.59,28.39,14.58,43.19c-5.15,1.73-10.12,3.39-15.59,5.22
		c-2.41-7.36-4.76-14.48-7.09-21.61c-2.45-7.51-5.04-14.98-7.28-22.55c-2.57-8.69,1.61-16.75,10.11-19.89
		c3.06-1.13,6.21-2.04,9.31-3.06c2.91-0.96,5.82-1.92,7.83-2.59c0-17.96,0-35.24,0-53c-4.86-1.47-9.93-2.97-14.99-4.53
		c-10.96-3.37-15.24-11.45-11.74-22.41c4.34-13.57,8.77-27.12,13.25-40.65c3.59-10.84,11.28-14.76,22.12-11.4
		c4.43,1.37,8.78,3.1,13.28,4.14c1.44,0.33,4.01-0.5,4.81-1.66c9.27-13.38,18.31-26.93,28.01-41.32c-2.16-2.85-5.36-7.04-8.53-11.27
		c-6.93-9.26-5.63-18.62,3.73-25.52c11.49-8.48,23.04-16.89,34.67-25.19c8.96-6.4,17.56-4.92,24.26,3.95
		c3.4,4.52,6.72,9.1,9.78,13.24c12.08-4.2,23.69-8.34,35.37-12.26c3.57-1.2,7.3-2.15,11.03-2.63c3.22-0.42,3.87-1.95,3.77-4.8
		c-0.17-4.64-0.14-9.29-0.02-13.93c0.26-9.78,6.96-16.43,16.77-16.5c14.82-0.1,29.63-0.09,44.45-0.01
		c10.38,0.05,16.96,6.72,17.11,17.21c0.08,5.82,0.01,11.65,0.01,16.51c17.16,5.42,33.65,10.63,50.84,16.06
		c2.62-3.75,5.8-8.41,9.1-12.98c6.18-8.57,15.3-10.22,23.85-4.13c11.91,8.49,23.75,17.09,35.52,25.77
		c8.55,6.31,9.95,15.67,3.8,24.42c-3.25,4.63-6.63,9.18-9.52,13.18c10.57,14.23,20.87,28.11,31.71,42.71
		c3.97-1.33,9.12-3.06,14.28-4.77c11.08-3.68,19.05,0.19,22.65,11.12c4.47,13.53,8.89,27.08,13.23,40.65
		c3.44,10.77-0.56,18.64-11.23,22.29c-5.35,1.83-10.76,3.49-15.49,5.02c0,17.74,0,35,0,52.87c4.69,1.44,9.74,2.98,14.78,4.53
		c11.26,3.47,15.51,11.5,11.89,22.75C486.19,307.16,481.62,321.01,476.93,335.38z"/>
	<path class="st0" d="M198.15,181.93c0,24.9,0,49.46,0,74.01c0,24.56,0,49.12,0,74.02c-5.56,0-10.78,0-16.39,0
		c0-18.99,0-37.84,0-57.08c-27.65,0-54.92,0-82.76,0c0,24.43,0,48.91,0,73.65c-5.66,0-10.76,0-16.34,0c-0.1-1.4-0.29-2.87-0.29-4.34
		c-0.02-25.11-0.02-50.21-0.01-75.32c0.01-8.13,2.72-10.87,10.79-10.88c27.39-0.02,54.78-0.01,82.17-0.01c1.87,0,3.74,0,6.29,0
		c0-2.14,0-3.96,0-5.78c0-24.59-0.01-49.18,0-73.77c0-8.73,2.58-11.26,11.44-11.27c42.03-0.01,84.06-0.01,126.09,0
		c8.76,0,11.32,2.58,11.33,11.39c0.01,24.42,0,48.84,0,73.25c0,1.86,0,3.72,0,6.17c2.23,0,4.06,0,5.89,0c27.39,0,54.78-0.01,82.17,0
		c8.49,0,11.18,2.64,11.18,11.02c0.02,24.93,0.01,49.87,0.01,74.8c0,1.5,0,3,0,4.74c-5.6,0-10.7,0-16.37,0c0-24.49,0-48.96,0-73.75
		c-27.83,0-55.11,0-82.76,0c0,19.04,0,37.89,0,57.11c-5.6,0-10.82,0-16.6,0c0-49.25,0-98.49,0-147.98
		C275.27,181.93,237.1,181.93,198.15,181.93z"/>
	<path class="st0" d="M421.24,239.26c-5.46,0-10.56,0-16.07,0c-1.5-47.97-20.22-87.58-58.18-117.31
		c-28.46-22.28-61.22-32.27-97.3-30.97c-79.47,2.87-144.73,70.85-143.02,148.25c-5.1,0-10.2,0-16.19,0
		c1.55-54.24,22.35-99.23,66.13-131.28c55.33-40.51,115.33-45.25,176.6-14.25C391.44,123.16,421.81,183.07,421.24,239.26z"/>
	<path class="st0" d="M243.39,231.01c-8.19,0-16.04,0-24.22,0c0-8.07,0-16.02,0-24.27c8.04,0,16.01,0,24.22,0
		C243.39,214.78,243.39,222.61,243.39,231.01z"/>
	<path class="st0" d="M293.07,206.87c0,8.04,0,15.87,0,24.02c-8.12,0-16.09,0-24.34,0c0-7.94,0-15.77,0-24.02
		C276.57,206.87,284.54,206.87,293.07,206.87z"/>
	<path class="st0" d="M219.24,256.17c8.08,0,15.93,0,24.09,0c0,8.13,0,16.09,0,24.31c-7.99,0-15.83,0-24.09,0
		C219.24,272.62,219.24,264.67,219.24,256.17z"/>
	<path class="st0" d="M268.68,280.39c0-8.19,0-16.02,0-24.12c8.07,0,15.91,0,24.17,0c0,7.84,0,15.79,0,24.12
		C285.03,280.39,277.07,280.39,268.68,280.39z"/>
	<path class="st0" d="M115.82,297.49c5.43,0,10.52,0,15.89,0c0,5.29,0,10.37,0,15.87c-5.08,0-10.29,0-15.89,0
		C115.82,308.33,115.82,303.13,115.82,297.49z"/>
	<path class="st0" d="M148.93,297.46c5.35,0,10.44,0,15.83,0c0,5.39,0,10.59,0,16.06c-5.25,0-10.34,0-15.83,0
		C148.93,308.39,148.93,303.18,148.93,297.46z"/>
	<path class="st0" d="M347.27,313.43c0-5.5,0-10.58,0-15.91c5.33,0,10.42,0,15.9,0c0,5.15,0,10.35,0,15.91
		C358.05,313.43,352.84,313.43,347.27,313.43z"/>
	<path class="st0" d="M380.39,297.51c5.31,0,10.4,0,15.87,0c0,5.19,0,10.39,0,15.94c-5.16,0-10.37,0-15.87,0
		C380.39,308.28,380.39,303.2,380.39,297.51z"/>
</g>
</svg>
