<?xml version="1.0" standalone="no"?>
<!DOCTYPE svg PUBLIC "-//W3C//DTD SVG 20010904//EN"
 "http://www.w3.org/TR/2001/REC-SVG-20010904/DTD/svg10.dtd">
<svg version="1.0" xmlns="http://www.w3.org/2000/svg"
 width="512.000000pt" height="512.000000pt" viewBox="0 0 512.000000 512.000000"
 preserveAspectRatio="xMidYMid meet">

<g transform="translate(0.000000,512.000000) scale(0.100000,-0.100000)"
fill="#000000" stroke="none">
<path d="M645 4950 c-281 -42 -515 -239 -612 -515 l-28 -80 0 -1795 0 -1795
28 -80 c95 -270 318 -462 592 -510 75 -13 247 -15 1203 -15 1108 0 1116 0
1158 21 109 52 121 210 22 281 l-33 23 -1150 5 c-1271 6 -1188 1 -1294 70
-111 71 -183 187 -201 321 -13 100 -13 3258 0 3358 25 194 166 345 355 381 44
8 480 10 1615 8 l1555 -3 57 -23 c117 -47 213 -144 260 -260 22 -55 23 -69 28
-469 5 -398 6 -413 26 -440 74 -99 205 -99 278 0 21 28 21 38 21 455 0 460 -1
471 -56 604 -98 238 -327 417 -586 457 -83 13 -3153 14 -3238 1z"/>
<path d="M889 3828 c-48 -27 -79 -83 -79 -142 0 -58 19 -97 67 -133 l36 -28
1235 -3 c819 -1 1246 1 1272 8 48 13 105 74 114 123 14 73 -24 150 -88 181
-31 14 -150 16 -1278 16 l-1243 0 -36 -22z"/>
<path d="M4667 3163 c-29 -27 -110 -99 -179 -161 -197 -178 -197 -169 5 -390
100 -109 161 -168 176 -170 59 -9 87 8 231 138 213 192 220 200 220 255 0 44
-3 48 -151 210 l-151 165 -49 0 c-43 0 -53 -5 -102 -47z"/>
<path d="M880 2707 c-98 -65 -99 -208 -1 -274 17 -12 55 -24 84 -28 29 -3 405
-5 837 -3 771 3 786 3 820 24 55 32 80 77 80 143 0 44 -6 65 -25 94 -49 71 8
67 -923 67 l-839 0 -33 -23z"/>
<path d="M4068 2628 c-575 -515 -1085 -983 -1092 -1002 -5 -13 -6 -35 -2 -50
9 -35 300 -354 334 -367 15 -6 36 -8 47 -5 12 3 286 244 608 536 l587 531 0
40 c0 36 -9 49 -101 152 -206 227 -227 247 -272 247 -9 0 -59 -37 -109 -82z"/>
<path d="M879 1587 c-50 -33 -83 -105 -74 -163 8 -59 61 -119 116 -134 25 -7
232 -10 596 -8 542 3 559 4 593 24 19 11 45 36 58 55 20 28 23 44 20 94 -4 69
-24 103 -79 134 -36 21 -49 21 -616 21 l-580 0 -34 -23z"/>
<path d="M2817 1473 c-16 -27 -157 -489 -153 -500 3 -7 15 -13 27 -13 33 0
493 101 502 110 5 4 7 15 5 23 -1 8 -79 98 -172 201 -154 169 -194 204 -209
179z"/>
</g>
</svg>
